Coordinates
version=1
nRows=24
nColumns=24
inDegrees=yes

Units are S.I. units (second, meters, Newtons, ...)
Angles are in degrees.

endheader
time	pelvis_tilt	pelvis_list	pelvis_rotation	pelvis_tx	pelvis_ty	pelvis_tz	hip_flexion_r	hip_adduction_r	hip_rotation_r	knee_angle_r	ankle_angle_r	subtalar_angle_r	mtp_angle_r	hip_flexion_l	hip_adduction_l	hip_rotation_l	knee_angle_l	ankle_angle_l	subtalar_angle_l	mtp_angle_l	lumbar_extension	lumbar_bending	lumbar_rotation
      2.98000000	     -8.62705520	      2.27618450	     -2.37743604	      0.05310085	      0.94894706	      0.05528228	     -1.66995227	     -3.30026642	     -5.88958118	    -10.07347198	     12.04571251	      0.00000000	      0.00000000	     22.04047411	     -3.69079440	     -9.05097511	      3.60333531	      0.28439175	      0.00000000	      0.00000000	      1.29105996	     -5.03811459	      4.83680771
      2.99000000	     -8.59701730	      2.28905774	     -2.68340303	      0.05412916	      0.94779709	      0.05352054	     -2.03270799	     -3.51945340	     -5.73130362	    -10.41764853	     12.01672867	      0.00000000	      0.00000000	     21.91388496	     -3.55646809	     -8.71564495	      3.41225732	      0.07308491	      0.00000000	      0.00000000	      1.39599196	     -5.09659627	      4.99124352
      3.00000000	     -8.47135392	      2.38265121	     -3.00525358	      0.05538864	      0.94678910	      0.05167053	     -2.43959273	     -3.85169333	     -5.49838716	    -10.91431440	     12.08047873	      0.00000000	      0.00000000	     21.65851549	     -3.34261043	     -8.40830058	      3.04033703	     -0.31600282	      0.00000000	      0.00000000	      1.42193254	     -5.25375096	      5.13823110
      3.01000000	     -8.12881104	      2.67730683	     -3.44405950	      0.05694845	      0.94607231	      0.04984401	     -2.99930995	     -4.43331878	     -5.24199318	    -11.56519918	     12.40329519	      0.00000000	      0.00000000	     21.06767670	     -2.93215798	     -8.37227420	      2.70397936	     -1.00064272	      0.00000000	      0.00000000	      1.26531706	     -5.65268739	      5.40316443
      3.02000000	     -8.02531084	      2.71644289	     -3.78187979	      0.05857456	      0.94512209	      0.04788786	     -3.40424803	     -4.72029359	     -5.11534227	    -11.99490020	     12.28851915	      0.00000000	      0.00000000	     20.89444380	     -2.80821846	     -8.08719461	      1.90091875	     -1.48426647	      0.00000000	      0.00000000	      1.39446965	     -5.75986503	      5.60935246
      3.03000000	     -7.68696534	      3.06839575	     -4.14198730	      0.06031421	      0.94453526	      0.04584397	     -3.86186584	     -5.39237110	     -4.89919981	    -12.85133608	     12.42596968	      0.00000000	      0.00000000	     20.39884377	     -2.33321785	     -8.14201625	      1.21095768	     -2.16967905	      0.00000000	      0.00000000	      1.27453041	     -6.24492662	      5.79010156
      3.04000000	     -7.56613118	      3.12140515	     -4.43571265	      0.06217259	      0.94383915	      0.04372547	     -4.24516795	     -5.71109764	     -4.78077652	    -13.36260592	     12.21152057	      0.00000000	      0.00000000	     20.19739951	     -2.20555466	     -7.93055144	      0.30781626	     -2.68107349	      0.00000000	      0.00000000	      1.40922737	     -6.38068642	      5.98613332
      3.05000000	     -7.25112166	      3.52139984	     -4.74115643	      0.06401715	      0.94353592	      0.04149141	     -4.58559762	     -6.45613700	     -4.64862320	    -14.35602362	     12.09243917	      0.00000000	      0.00000000	     19.73642132	     -1.68254606	     -8.14527347	     -0.45367455	     -3.19785632	      0.00000000	      0.00000000	      1.32307099	     -6.93477400	      6.13737547
      3.06000000	     -7.06727173	      3.68053312	     -4.94867311	      0.06587365	      0.94331013	      0.03919439	     -4.86721835	     -6.91067275	     -4.52877522	    -15.17568602	     11.69132798	      0.00000000	      0.00000000	     19.43623426	     -1.42740783	     -8.10707509	     -1.28116116	     -3.58746689	      0.00000000	      0.00000000	      1.36972164	     -7.20914065	      6.22658812
      3.07000000	     -6.88007565	      3.89981580	     -5.11332809	      0.06774853	      0.94333517	      0.03682811	     -5.06653022	     -7.43621495	     -4.48973790	    -16.13890361	     11.20425252	      0.00000000	      0.00000000	     19.08540454	     -1.09901317	     -8.14889832	     -2.03011956	     -3.79226479	      0.00000000	      0.00000000	      1.40456263	     -7.57094102	      6.33025477
      3.08000000	     -6.64279631	      4.32916585	     -5.32158512	      0.06963608	      0.94365736	      0.03439180	     -5.17071636	     -8.23238853	     -4.48442830	    -17.30314098	     10.69582287	      0.00000000	      0.00000000	     18.62289842	     -0.55055098	     -8.37150879	     -2.65904195	     -3.73899587	      0.00000000	      0.00000000	      1.39768281	     -8.16407282	      6.47082006
      3.09000000	     -6.46569031	      4.46856276	     -5.36414435	      0.07127090	      0.94422522	      0.03181181	     -5.17881398	     -8.68390903	     -4.45315929	    -18.54732437	      9.85043186	      0.00000000	      0.00000000	     18.23253110	     -0.26750736	     -8.35959718	     -3.28105884	     -3.73838819	      0.00000000	      0.00000000	      1.35537024	     -8.42869013	      6.42766447
      3.10000000	     -6.26913719	      4.88643784	     -5.49150964	      0.07302639	      0.94500093	      0.02924896	     -5.07477389	     -9.47323387	     -4.48784421	    -19.93342949	      8.98675099	      0.00000000	      0.00000000	     17.76746874	      0.30194960	     -8.56290300	     -3.84839256	     -3.29318678	      0.00000000	      0.00000000	      1.35102449	     -9.00313318	      6.49496189
      3.11000000	     -6.08849526	      5.13623440	     -5.53283894	      0.07455911	      0.94601306	      0.02660114	     -4.85914983	    -10.07441946	     -4.49102368	    -21.47390573	      7.86950011	      0.00000000	      0.00000000	     17.29601896	      0.72914806	     -8.64328681	     -4.36157321	     -2.89152974	      0.00000000	      0.00000000	      1.28789323	     -9.38154528	      6.45849167
      3.12000000	     -5.91286634	      5.38067076	     -5.57606423	      0.07598079	      0.94716663	      0.02396362	     -4.50681959	    -10.68196089	     -4.47933473	    -23.19584477	      6.64848478	      0.00000000	      0.00000000	     16.79332511	      1.16779624	     -8.78274585	     -4.81156842	     -2.36799439	      0.00000000	      0.00000000	      1.20781093	     -9.74015605	      6.38830539
      3.13000000	     -5.71038708	      5.49806039	     -5.58746436	      0.07722161	      0.94850107	      0.02124078	     -4.07116544	    -11.16381282	     -4.48379482	    -25.08092903	      5.27366072	      0.00000000	      0.00000000	     16.22194351	      1.50226102	     -8.82304646	     -5.19004549	     -1.92624870	      0.00000000	      0.00000000	      1.04501066	     -9.93365197	      6.28663365
      3.14000000	     -5.53409107	      5.73273639	     -5.68194232	      0.07838909	      0.94981182	      0.01869216	     -3.46664057	    -11.77863593	     -4.35869603	    -27.10287566	      3.78440717	      0.00000000	      0.00000000	     15.65728795	      1.94913484	     -9.04832298	     -5.54089224	     -1.26093597	      0.00000000	      0.00000000	      0.93734914	    -10.25217557	      6.21396578
      3.15000000	     -5.37844168	      5.86682194	     -5.79755206	      0.07935312	      0.95108783	      0.01618029	     -2.69687326	    -12.28947767	     -4.20066989	    -29.31975054	      2.31597106	      0.00000000	      0.00000000	     15.06552718	      2.30212738	     -9.32686934	     -5.78058357	     -0.69322564	      0.00000000	      0.00000000	      0.81702775	    -10.42609613	      6.12678726
      3.16000000	     -5.17240842	      5.70970280	     -5.68476517	      0.08019088	      0.95242984	      0.01361264	     -2.03853766	    -12.44938430	     -4.26725461	    -31.55181183	      1.10320386	      0.00000000	      0.00000000	     14.33149918	      2.42053367	     -9.46016225	     -5.80941180	     -0.38546287	      0.00000000	      0.00000000	      0.53637552	    -10.28386126	      5.73703862
      3.17000000	     -4.99153243	      5.94802654	     -6.05361986	      0.08079569	      0.95354787	      0.01143385	     -0.96207659	    -13.09916272	     -3.83867615	    -34.04796383	     -0.66827316	      0.00000000	      0.00000000	     13.70700627	      2.83256585	     -9.77906083	     -6.05081211	      0.27524164	      0.00000000	      0.00000000	      0.41314022	    -10.53671580	      5.90762612
      3.18000000	     -4.79196217	      5.72171711	     -5.98518654	      0.08138150	      0.95469083	      0.00906838	     -0.15248904	    -13.18603903	     -3.92429997	    -36.39585792	     -1.65417143	      0.00000000	      0.00000000	     12.92721250	      2.87439141	     -9.95744050	     -5.95960959	      0.53888308	      0.00000000	      0.00000000	      0.11907456	    -10.28045150	      5.49486714
      3.19000000	     -4.70936154	      5.95229687	     -6.47474325	      0.08161930	      0.95541219	      0.00719241	      1.25687423	    -13.77626871	     -3.28350016	    -39.07323288	     -3.10241774	      0.00000000	      0.00000000	     12.34234327	      3.25952968	    -10.45728327	     -6.00455168	      1.09313921	      0.00000000	      0.00000000	      0.10583573	    -10.47984943	      5.73837141
      3.20000000	     -4.51650482	      5.65832811	     -6.38182260	      0.08194140	      0.95633890	      0.00508208	      2.11452180	    -13.75016666	     -3.40461258	    -41.35271769	     -3.75546069	      0.00000000	      0.00000000	     11.54142025	      3.22212594	    -10.57074338	     -5.83377252	      1.29103499	      0.00000000	      0.00000000	     -0.20249390	    -10.14326347	      5.25084597
      3.21000000	     -4.56259667	      5.83411041	     -6.87616914	      0.08179336	      0.95665117	      0.00351213	      3.75946498	    -14.17243637	     -2.67234746	    -44.02535538	     -4.50487634	      0.00000000	      0.00000000	     11.06626689	      3.52931771	    -11.01441572	     -5.75014879	      1.64584895	      0.00000000	      0.00000000	     -0.09205544	    -10.26156875	      5.45319198
